<?xml version="1.0" encoding="utf-8"?>
<!-- Generator: Adobe Illustrator 19.1.0, SVG Export Plug-In . SVG Version: 6.00 Build 0)  -->
<!DOCTYPE svg PUBLIC "-//W3C//DTD SVG 1.1//EN" "http://www.w3.org/Graphics/SVG/1.1/DTD/svg11.dtd">
<svg version="1.1" id="Layer_1" xmlns="http://www.w3.org/2000/svg" xmlns:xlink="http://www.w3.org/1999/xlink" x="0px" y="0px"
	 width="100px" height="100px" viewBox="0 0 100 100" enable-background="new 0 0 100 100" xml:space="preserve">
<path fill="#2BAC80" d="M67,0.5c-9.3,0-16.9,7.6-16.9,16.9S57.7,34.3,67,34.3s16.9-7.6,16.9-16.9S76.3,0.5,67,0.5z M67,23.6
	c-3.4,0-6.2-2.8-6.2-6.2s2.8-6.2,6.2-6.2s6.2,2.8,6.2,6.2S70.4,23.6,67,23.6z"/>
<path fill="#3E3A39" d="M95.1,84.9l-1.9-1.3l0,0l-1.3-0.8c-6.1-3.7-10.7-9.9-13.9-18.2c-3.6-9.5-4-19-4-20.8l0-0.5
	c0-4.5-3.4-7.3-6.6-7.3h-0.9l-0.1,0c-2.7,0.2-5.8,2.2-6.5,5.7l-0.1,0.1l-0.1,0.4c0,0.1,0,0.8,0,0.8h0c0,16-5.6,30-14.4,37.1
	c-4.8,3.9-10.2,5.3-16.1,4.1c-1.6-0.3-2.5-1-3.3-2.6c-2.6-5.2-1.9-16,2-31L38,51c0,0,0,0,0,0c2.9,0,5.5-2,6.6-4.7
	c0.9-2.2,0.6-4.8-0.7-6.8c-1.3-2-3.5-3.2-5.9-3.2l-5.8,0c1.7-4.9,3.5-9.4,4.9-12.5c0.6-1.2,1.3-2.6,2.1-4.2l0.6-1.3l-0.1,0
	c0.6-1.9,0.4-4-0.7-5.8c-1.3-2.2-3.6-3.5-6.1-3.5c-2.6,0-5.1,1.4-6.3,3.8L26.1,14l0,0l-0.3,0.6l0,0c-0.6,1.1-1.1,2.1-1.5,3.1
	c0,0.1-3.5,7.7-7,18.5L8.4,36c0,0,0,0,0,0c-2.9,0-5.5,1.9-6.6,4.6c-0.9,2.2-0.6,4.7,0.7,6.7s3.5,3.2,5.9,3.2l4.8,0
	c-4,16.9-4.1,29.6,0,37.6c2.7,5.5,7.3,9,13.2,10.2c2.4,0.5,4.7,0.7,7,0.7c7.6,0,14.7-2.6,21-7.7c5-4.1,9.3-9.7,12.6-16.4
	C71,83.4,76.7,90,83.7,94.6c1.2,0.9,2.4,1.7,3.6,2.4c0.2,0.1,0.8,0.4,1,0.5c1.7,0.9,3.6,1.1,5.5,0.5c1.8-0.6,3.3-1.8,4.2-3.5
	C99.8,91.1,98.5,86.8,95.1,84.9z"/>
</svg>
